<?xml version="1.0" encoding="utf-8"?>
<!-- Generator: Adobe Illustrator 23.0.2, SVG Export Plug-In . SVG Version: 6.00 Build 0)  -->
<svg version="1.1" id="Layer_1" xmlns="http://www.w3.org/2000/svg" xmlns:xlink="http://www.w3.org/1999/xlink" x="0px" y="0px"
	 viewBox="0 0 500 500" style="enable-background:new 0 0 500 500;" xml:space="preserve">
<metadata><?xpacket begin="﻿" id="W5M0MpCehiHzreSzNTczkc9d"?>
<x:xmpmeta xmlns:x="adobe:ns:meta/" x:xmptk="Adobe XMP Core 6.0-c002 79.164352, 2020/01/30-15:50:38        ">
   <rdf:RDF xmlns:rdf="http://www.w3.org/1999/02/22-rdf-syntax-ns#">
      <rdf:Description rdf:about=""
            xmlns:xmpRights="http://ns.adobe.com/xap/1.0/rights/"
            xmlns:dc="http://purl.org/dc/elements/1.1/"
            xmlns:Iptc4xmpCore="http://iptc.org/std/Iptc4xmpCore/1.0/xmlns/"
            xmlns:xmp="http://ns.adobe.com/xap/1.0/"
            xmlns:xmpMM="http://ns.adobe.com/xap/1.0/mm/"
            xmlns:stEvt="http://ns.adobe.com/xap/1.0/sType/ResourceEvent#">
         <xmpRights:Marked>True</xmpRights:Marked>
         <xmpRights:WebStatement>crafthousesvg.com</xmpRights:WebStatement>
         <dc:rights>
            <rdf:Alt>
               <rdf:li xml:lang="x-default">Copyright © 2020 Craft House SVG. All rights reserved.</rdf:li>
            </rdf:Alt>
         </dc:rights>
         <dc:creator>
            <rdf:Seq>
               <rdf:li>Craft House SVG</rdf:li>
            </rdf:Seq>
         </dc:creator>
         <Iptc4xmpCore:CreatorContactInfo>
            <rdf:Description>
               <Iptc4xmpCore:CiUrlWork>crafthousesvg.com</Iptc4xmpCore:CiUrlWork>
            </rdf:Description>
         </Iptc4xmpCore:CreatorContactInfo>
         <xmp:MetadataDate>2020-10-10T16:30:14-07:00</xmp:MetadataDate>
         <xmpMM:InstanceID>xmp.iid:3a05ed83-8fd3-4948-a111-e7cc26e4225d</xmpMM:InstanceID>
         <xmpMM:DocumentID>xmp.did:3a05ed83-8fd3-4948-a111-e7cc26e4225d</xmpMM:DocumentID>
         <xmpMM:OriginalDocumentID>xmp.did:3a05ed83-8fd3-4948-a111-e7cc26e4225d</xmpMM:OriginalDocumentID>
         <xmpMM:History>
            <rdf:Seq>
               <rdf:li>
                  <rdf:Description>
                     <stEvt:action>saved</stEvt:action>
                     <stEvt:instanceID>xmp.iid:3a05ed83-8fd3-4948-a111-e7cc26e4225d</stEvt:instanceID>
                     <stEvt:when>2020-10-10T16:30:14-07:00</stEvt:when>
                     <stEvt:softwareAgent>Adobe Bridge 2020 (Macintosh)</stEvt:softwareAgent>
                     <stEvt:changed>/metadata</stEvt:changed>
                  </rdf:Description>
               </rdf:li>
            </rdf:Seq>
         </xmpMM:History>
      </rdf:Description>
   </rdf:RDF>
</x:xmpmeta>
                                                                                                    
                                                                                                    
                                                                                                    
                                                                                                    
                                                                                                    
                                                                                                    
                                                                                                    
                                                                                                    
                                                                                                    
                                                                                                    
                                                                                                    
                                                                                                    
                                                                                                    
                                                                                                    
                                                                                                    
                                                                                                    
                                                                                                    
                                                                                                    
                                                                                                    
                                                                                                    
                           
<?xpacket end="w"?></metadata>
<style type="text/css">
	.st0{fill:#006837;}
</style>
<path class="st0" d="M156.07,310.56c-25.5,0.91-21.88,0.88-30.92-1.96c-9.51-2.99-16.89-4.93-16.79-12.25
	c0.33-22.3,32.27,11.37,86.43-54.16c1.71-2.07-4.9-4.01-10.17-1.11c-16.63,9.13-27.08,8.47-46.69,8.65
	c-5.31,0.05-10.13-1.23-12.47-5.76c-1.36-2.63-3.54-4.21-1.66-6.01c14.91-14.35,35.85-15.06,66.12-45.13
	c4.24-4.21,4.09-4.59-1.33-6.61c-5.58-2.07-4.98-5.23-21.52-2.59c-12.38,1.98-19.96,2.78-23.32-4.98
	c-2.99-6.93,2.14-14.16,8.2-14.06c6.39,0.1,48.87-23.75,61.99-47.49c-2.07-0.48-3.72-1.03-5.4-1.21c-7.04-0.72-9.06-6.2-4.12-11.49
	c15.02-16.09,24.27-24.85,30.8-51.69c6.9-28.35,4.91-29.76,7.71-40.89c2.04-8.13,9.61-8.66,12.31-3.4
	c1.89,3.69,9.5,65.69,41.5,98.08c6.42,6.5,1.05,9.57,2.81,12.79c11.6,21.11,8.72,15.4,54.53,49.25c6.7,4.95,12.52,8.12,10.06,15.17
	c-3.08,8.83-8.51,3.7-19.26,7.02c-6.11,1.89-7.62-3.56-15.56-3.74c-14.4-0.32-15.57-2.29-17.96,0.85c-2.44,3.2-4.85,1.59-0.41,5.87
	c21.65,20.83,36.94,26.96,53.96,35.55c8.18,4.13,17.02,11.85,8.39,13.56c-7.06,1.4-6.2-1.46-6.57,2.98
	c-0.6,7.31-7.5,11.06-13.88,7.41c-2.19-1.25-4.11-2.98-6.35-4.65c-11.46,6.93-23.84-0.33-17.16,7.09
	c13.06,14.5,29.12,26.13,45.9,35.14c3.59,1.93,5.43,5.26,7.93,8.07c1.07,1.21,0.27,2.57-0.78,3.32c-10.05,7.18-10.37,0.36-14.8,3.83
	c-13.67,10.72-31.76-3.19-41.16-1.47c7.94,8.72,32.9,27.46,40.4,30.96c13.4,6.25,55.19,23.1,41.52,27.73
	c-9.4,3.18-24.15,0.46-32.27,3.63c-22.42,8.74-20.2,0.18-34.23,0.84c30.14,30.46,82.16,33.68,96.58,43.84
	c5.49,3.87-0.52,6.49-1.18,7.61c-4.8,8.25-16.6,6.73-26.05,5.43c-10.65-1.47-11.53,5.49-26.16,2.84
	c-19.18-3.49-20.69-3.16-22.74-1.52c-6.5,5.2-11.59,9.13-18.35,2.97c-2.7-2.46-3.72-0.25-9.27,2.76c-5.86,3.18-7.63,0.94-15.72-0.27
	c-9.82-1.47-16.73,13.02-27.79-5.11c-6.57,2.45-13,5.39-20.43,4.57c-0.53,5.28,0.39,53.14,0.39,53.33
	c0.23,12.43-24.51,12.95-37.37,7.64c-6.82-2.82-4.79-3.99-4.16-55.94c0.08-6.94-15.21,1.09-34.64-4.78
	c-7.02-2.12-9.16,8.1-20.71,1.52c-3.03-1.73-7.06-1.79-10.68-2.3c-2.74-0.38-15.83,14.58-25.66,0.62c-4-5.68-68.71-0.59-74.99-11.45
	c-0.59-1.02-5.85-3.42-2.62-6.63c5.21-5.16,8.32-4.82,14.44-7.22c4.9-1.93,3.55-5.25,11.25-8.61c10.07-4.39,15.83-3.72,39.43-18.2
	c3.1-1.9,2.57-2.26,10.66-11.57c-9.1-3.05,3.67,0.72-37.04-2.97c-36.73-3.33,32.03-19.04,71.29-56.62
	C169.31,306.16,165.1,310.24,156.07,310.56z M337.1,409.67c8.92-4.35,7.82-1.86,5.73-12.59c-0.56-2.85-8.1-11.04-9.95-12.85
	c-7.28-7.13-11.58,0.38-24.73-11.27c-5.46-4.83-8.43,4.19-35.78-0.87c-10.34-1.91-10.14-17.24,2.37-17.54
	c3.51-0.08,7-0.49,10.47-0.75c-0.36-13.95-9.86-24.06-9.32-33.19c0.45-7.58,9.63-13.44,18.06-3.32
	c3.32,3.98,16.76,35.01,36.69,31.65c34.05-5.74,38.57,15.79-29.7-50.41c-7.55,2.14-12.76,4.54-17.66-5.48
	c-3.37-6.88-2.68-9.71-5.86-10.05c-4.93-0.54-5.28-5.91-14.56,6.19c15.47,2.96,12.06,16.58,2.88,18
	c-21.11,3.27-20.7-0.52-24.49-0.41c-25.32,0.74-26.38,3.48-40.42-6.13c-4.89,4.57-13.82,15.46-15.96,18.11
	c-16.8,20.86-21.27,18.81-18.56,26.07c24.51-7.84,7.38,4.53,30.83-17.04c8.33-7.66,19.6-4.71,16.94,11.36
	c4.42-2.24,10.11-6.12,15.73-1.93c4.5,3.36,8.43-3.25,15.43,1.98c4.2,3.13,9.44,0.38,12.06,7.28c7.61,20-40.25,14.2-52.04,18.17
	c-9.63,3.25-13.26-2.33-15.07-2.57c-33.22,26.33-37.27,22.6-34.26,37.84c15.57,3.34,14.22,4.03,51.35-23.32
	c7.25-5.34,18.05-3.06,17.11,13.38c17.88,1.06,6.41,8.51,18.68,17.53c1.53,1.12,4.91,0.03,10.49-2.05
	c10.94-4.09,24.25,0.77,27.59-1.46c5.96-3.97,7.49,1.95,11.35,0.61c12.82-4.44,14.43,10.43,22.53,4.76
	C326.89,401.03,331.92,403.98,337.1,409.67z M250.6,158.14c18.25,5.34,9.45,11.36,12.44,17.89c2.47,5.4-0.38,11.29-6.17,12.39
	c-4.63,0.88-6.78-1.49-11.88-1.06c-9.63,0.81-11.31-1.13-16.18-3.04c-8.8,3.54-12.6,11.29-16.72,19.9
	c10.62-3.3,20.62-6.85,23.49,5.35c0.73,3.12,3.1,1.2,12.11,4.98c8.6,3.62,17.68-1.4,20.69,11.98c2.03,9.05-10.87,16.27-20.14,14.6
	c-6.32-1.14-13.7,0.72-19.76,2.96c-4.22,1.55-26.82,28.96-28.74,31.66c13.74,3.9,26.83,4.61,39.13-3.3
	c3.41-20.72,17.41-5.4,22.23-13.72c4.71-8.13,8.7-14.07,15.87-12.48c5.08,1.12,7.86,6.05,7.95,10.48c0.12,6.56,5.71,9.86,9.72,16.39
	c4.23,6.89,16.76,7.53,24.59,5.22c-26.57-25.27-33.7-35.68-34.16-47.21c-0.45-11.33,10.15-10.37,21.61-10.31
	c3.26,0.02,9.14,4.65,12.81,7.25c3.65,2.59,0.71,2.75,11.21-0.6c-6.52-5.18-20.22-13.87-32.45-28.54c-2.46-2.95-5.8-1.58-10.93-9.2
	c-0.91-1.35-10.59-15.85-11.37-18.52c-2.57-8.84,7.41-15.09,14.15-9.15c2.72,2.39,4.6,6.6,9.83,9.8c6.86-4.83,3.65-3.48,12.29-5.14
	c-54.1-40.81-40.81-50.46-51.05-49.17c-28.25,3.55-19.21-9.85-36.76,21.04c11.34,2.28,10.46,8.67,14.7,9.03
	C249.08,148.49,248.23,152.61,250.6,158.14z"/>
</svg>
