<?xml version="1.0" encoding="utf-8"?>
<!-- Generator: Adobe Illustrator 23.0.2, SVG Export Plug-In . SVG Version: 6.00 Build 0)  -->
<svg version="1.1" id="Layer_1" xmlns="http://www.w3.org/2000/svg" xmlns:xlink="http://www.w3.org/1999/xlink" x="0px" y="0px"
	 viewBox="0 0 500 500" style="enable-background:new 0 0 500 500;" xml:space="preserve">
<metadata><?xpacket begin="﻿" id="W5M0MpCehiHzreSzNTczkc9d"?>
<x:xmpmeta xmlns:x="adobe:ns:meta/" x:xmptk="Adobe XMP Core 6.0-c002 79.164352, 2020/01/30-15:50:38        ">
   <rdf:RDF xmlns:rdf="http://www.w3.org/1999/02/22-rdf-syntax-ns#">
      <rdf:Description rdf:about=""
            xmlns:xmpRights="http://ns.adobe.com/xap/1.0/rights/"
            xmlns:dc="http://purl.org/dc/elements/1.1/"
            xmlns:Iptc4xmpCore="http://iptc.org/std/Iptc4xmpCore/1.0/xmlns/"
            xmlns:xmp="http://ns.adobe.com/xap/1.0/"
            xmlns:xmpMM="http://ns.adobe.com/xap/1.0/mm/"
            xmlns:stEvt="http://ns.adobe.com/xap/1.0/sType/ResourceEvent#">
         <xmpRights:Marked>True</xmpRights:Marked>
         <xmpRights:WebStatement>crafthousesvg.com</xmpRights:WebStatement>
         <dc:rights>
            <rdf:Alt>
               <rdf:li xml:lang="x-default">Copyright © 2020 Craft House SVG. All rights reserved.</rdf:li>
            </rdf:Alt>
         </dc:rights>
         <dc:creator>
            <rdf:Seq>
               <rdf:li>Craft House SVG</rdf:li>
            </rdf:Seq>
         </dc:creator>
         <Iptc4xmpCore:CreatorContactInfo>
            <rdf:Description>
               <Iptc4xmpCore:CiUrlWork>crafthousesvg.com</Iptc4xmpCore:CiUrlWork>
            </rdf:Description>
         </Iptc4xmpCore:CreatorContactInfo>
         <xmp:MetadataDate>2020-10-10T16:30:14-07:00</xmp:MetadataDate>
         <xmpMM:InstanceID>xmp.iid:bb98378d-9ee9-4d72-8f41-f23c29f7420b</xmpMM:InstanceID>
         <xmpMM:DocumentID>xmp.did:bb98378d-9ee9-4d72-8f41-f23c29f7420b</xmpMM:DocumentID>
         <xmpMM:OriginalDocumentID>xmp.did:bb98378d-9ee9-4d72-8f41-f23c29f7420b</xmpMM:OriginalDocumentID>
         <xmpMM:History>
            <rdf:Seq>
               <rdf:li>
                  <rdf:Description>
                     <stEvt:action>saved</stEvt:action>
                     <stEvt:instanceID>xmp.iid:bb98378d-9ee9-4d72-8f41-f23c29f7420b</stEvt:instanceID>
                     <stEvt:when>2020-10-10T16:30:14-07:00</stEvt:when>
                     <stEvt:softwareAgent>Adobe Bridge 2020 (Macintosh)</stEvt:softwareAgent>
                     <stEvt:changed>/metadata</stEvt:changed>
                  </rdf:Description>
               </rdf:li>
            </rdf:Seq>
         </xmpMM:History>
      </rdf:Description>
   </rdf:RDF>
</x:xmpmeta>
                                                                                                    
                                                                                                    
                                                                                                    
                                                                                                    
                                                                                                    
                                                                                                    
                                                                                                    
                                                                                                    
                                                                                                    
                                                                                                    
                                                                                                    
                                                                                                    
                                                                                                    
                                                                                                    
                                                                                                    
                                                                                                    
                                                                                                    
                                                                                                    
                                                                                                    
                                                                                                    
                           
<?xpacket end="w"?></metadata>
<style type="text/css">
	.st0{fill:#006837;}
</style>
<path class="st0" d="M217.24,404.22c-11.62,8.57-19.27,18.82-55.04,24.6c-31.22,5.04-36.18-11.29-27.4-18.72
	c3.36-2.84,28.06-15.77,25.31-19.42c-19.45,8.82-33.07,18.5-63.88,15.96c-45.22-3.73-53.59-22.94-37.88-28.54
	c13.78-4.92,29.05-18.84,31.99-23.19c-28.4-4.62-28.78-18.27-12.77-24.61c38.24-15.15,63.15-50.95,65.31-63.08
	c-3.14-0.74-24.61-0.57-35.26-13.86c-14.33-17.87,26.65-10.05,47.26-35.44c-31.91,0-35.78-16.45-24.83-20.62
	c11.5-4.38,18.9-4.94,32.13-14.85c22.63-16.95,40.54-43.05,42.93-50.95c0.58-1.91-0.94-0.64-9.15-2.32
	c-13.24-2.71-15.05-12.92-8.62-19.2c2.46-2.4,1.71-1.11,11.46-10.1c-21.68-8.22-16.96-19.89-8.23-22.27
	c59.79-16.29,50.8-85.74,62.22-70.39c8.63,11.59,1.11,49.72,57.61,70.48c6.97,2.56,8.91,9.82,3.72,15.13
	c-12.65,12.93-19.65-0.56-1.29,16.95c7.05,6.73,6.83,18.74-17.89,20.54c5.31,12.96,20.16,33.6,39.83,49.58
	c15.55,12.64,33.34,16.4,36.18,17.69c10.32,4.68,5.52,20.33-25.37,20.33c12.58,16.35,33.87,18.78,43.63,22.33
	c13.04,4.75,4.62,23.87-30.58,26.47c-0.27,0.02-0.53,0.22-1.32,0.58c21.39,49.95,67.83,63.48,71.13,65.52
	c8.81,5.46,6.36,17.3-12.29,21.08c-6.02,1.22-7.71,0.1-4.17,3.48c28.3,27.05,36.28,17.64,36.97,29
	c0.91,14.88-54.82,31.52-94.89,11.08c-15.37-7.84-13.72-7.23-14.65-5.83c14.87,13.93,19.63,13.13,25.82,18.18
	c7.87,6.42,4.85,19.6-13.12,19.74c-47.18,0.36-66.11-25.49-68.87-24.69c-0.5,2.84,0.45,75.37,0.61,77.3
	c0.88,10.88-6.83,11.46-23.91,12.3C196.45,497.57,221.95,490.01,217.24,404.22z"/>
</svg>
