<?xml version="1.0" encoding="utf-8"?>
<!-- Generator: Adobe Illustrator 23.0.2, SVG Export Plug-In . SVG Version: 6.00 Build 0)  -->
<svg version="1.1" id="Layer_1" xmlns="http://www.w3.org/2000/svg" xmlns:xlink="http://www.w3.org/1999/xlink" x="0px" y="0px"
	 viewBox="0 0 500 500" style="enable-background:new 0 0 500 500;" xml:space="preserve">
<metadata><?xpacket begin="﻿" id="W5M0MpCehiHzreSzNTczkc9d"?>
<x:xmpmeta xmlns:x="adobe:ns:meta/" x:xmptk="Adobe XMP Core 6.0-c002 79.164352, 2020/01/30-15:50:38        ">
   <rdf:RDF xmlns:rdf="http://www.w3.org/1999/02/22-rdf-syntax-ns#">
      <rdf:Description rdf:about=""
            xmlns:xmpRights="http://ns.adobe.com/xap/1.0/rights/"
            xmlns:dc="http://purl.org/dc/elements/1.1/"
            xmlns:Iptc4xmpCore="http://iptc.org/std/Iptc4xmpCore/1.0/xmlns/"
            xmlns:xmp="http://ns.adobe.com/xap/1.0/"
            xmlns:xmpMM="http://ns.adobe.com/xap/1.0/mm/"
            xmlns:stEvt="http://ns.adobe.com/xap/1.0/sType/ResourceEvent#">
         <xmpRights:Marked>True</xmpRights:Marked>
         <xmpRights:WebStatement>crafthousesvg.com</xmpRights:WebStatement>
         <dc:rights>
            <rdf:Alt>
               <rdf:li xml:lang="x-default">Copyright © 2020 Craft House SVG. All rights reserved.</rdf:li>
            </rdf:Alt>
         </dc:rights>
         <dc:creator>
            <rdf:Seq>
               <rdf:li>Craft House SVG</rdf:li>
            </rdf:Seq>
         </dc:creator>
         <Iptc4xmpCore:CreatorContactInfo>
            <rdf:Description>
               <Iptc4xmpCore:CiUrlWork>crafthousesvg.com</Iptc4xmpCore:CiUrlWork>
            </rdf:Description>
         </Iptc4xmpCore:CreatorContactInfo>
         <xmp:MetadataDate>2020-10-10T16:30:14-07:00</xmp:MetadataDate>
         <xmpMM:InstanceID>xmp.iid:54a88b05-e414-477a-842c-cf3cb671fbc9</xmpMM:InstanceID>
         <xmpMM:DocumentID>xmp.did:54a88b05-e414-477a-842c-cf3cb671fbc9</xmpMM:DocumentID>
         <xmpMM:OriginalDocumentID>xmp.did:54a88b05-e414-477a-842c-cf3cb671fbc9</xmpMM:OriginalDocumentID>
         <xmpMM:History>
            <rdf:Seq>
               <rdf:li>
                  <rdf:Description>
                     <stEvt:action>saved</stEvt:action>
                     <stEvt:instanceID>xmp.iid:54a88b05-e414-477a-842c-cf3cb671fbc9</stEvt:instanceID>
                     <stEvt:when>2020-10-10T16:30:14-07:00</stEvt:when>
                     <stEvt:softwareAgent>Adobe Bridge 2020 (Macintosh)</stEvt:softwareAgent>
                     <stEvt:changed>/metadata</stEvt:changed>
                  </rdf:Description>
               </rdf:li>
            </rdf:Seq>
         </xmpMM:History>
      </rdf:Description>
   </rdf:RDF>
</x:xmpmeta>
                                                                                                    
                                                                                                    
                                                                                                    
                                                                                                    
                                                                                                    
                                                                                                    
                                                                                                    
                                                                                                    
                                                                                                    
                                                                                                    
                                                                                                    
                                                                                                    
                                                                                                    
                                                                                                    
                                                                                                    
                                                                                                    
                                                                                                    
                                                                                                    
                                                                                                    
                                                                                                    
                           
<?xpacket end="w"?></metadata>
<style type="text/css">
	.st0{fill:#006837;}
</style>
<g>
	<path class="st0" d="M92.95,232.07c77.19,38.42,169.13,59.62,295.92,33.31c-2.36,4.37-25.85,21.38-55.99,26.84
		c16.68,25.13,19.86,19.75,13.49,24.45c-65.55,48.4-140.63,78.74-226.33,91.83c-6.4,0.98-22.85-8.37-28.2-12.01
		c-9.93-6.74-13.55-10.97-13.95-22.1c-0.61-16.81,31.8-2.6,86.43-78.15c3.52-4.87,3.82-3.66-4.36-5.48
		C118.62,281.56,85.05,246.27,92.95,232.07z M265.3,319.09c11.05,34.38,52.44,2.43,28.44-15.36
		C280.62,294,265.99,303.47,265.3,319.09z M160.68,380.85c17.87,0.08,24.6-18.8,11.08-25.76
		C147.11,342.41,138.09,380.75,160.68,380.85z M193.69,319.64c-0.17,17.64,26.2,17.56,26.37,0.19
		C220.22,302.69,193.87,301.77,193.69,319.64z"/>
	<path class="st0" d="M309.24,177.74c12.42,14.41,40.89,33.81,82.12,44.88c4.51,1.21,21.73,3.63,15.88,19.34
		c-2.77,7.43-79.8,24.08-177.35,14.9c-48.06-4.52-80.33-16.89-118.48-34.41c6.63-2.36,16.62-3.56,33.32-12.56
		c17.22-9.28,20.93-12.39,26.97-13.52c57.38-10.74,121.7-32.37,166.59-69.71c7.26-6.04,22.9,5,15.81,19.8
		C343.42,168.79,311.14,176.4,309.24,177.74z M233.35,231.94c18.21-0.56,17.81-26.93,1.43-26.54
		C217,205.82,215.16,232.5,233.35,231.94z M312.84,234.85c16.96,0.04,15.56-25.32-0.19-25.45
		C297.01,209.26,296.42,234.81,312.84,234.85z M192.81,221.96c0.12-15.21-23.47-15.33-23.44,0.18
		C169.39,237.56,192.69,237.49,192.81,221.96z"/>
	<path class="st0" d="M282.86,430.72c2.18,36.98,8.33,56.97-3.83,59.66c-26.97,5.96-31.16,6.27-57.42,0.23
		c-14.86-3.42-4.72-29.05-4.72-60.02c-20.74-2.49-41.48-5.31-62.57-10.5c22.59-6.01,74.07-17.39,129.23-45.22
		c99.5-50.2,62.71-59.94,96.75-30.27c15.63,13.63,30.72,18.05,35.76,20.71c10.62,5.61,6.1,20.72-4.39,28.67
		C376.99,420.27,297.79,428.26,282.86,430.72z M381.44,380.35c3.22-22.53-28.78-32.25-37.66-9.78
		C334.26,394.69,378.18,403.18,381.44,380.35z M298.62,406.26c0.15-15.78-23.82-13.71-24.2-0.72
		C274.01,419.65,298.45,423.87,298.62,406.26z"/>
	<path class="st0" d="M326.34,114.77c-52.72,41.94-134.98,62.95-142.98,60.34c-30.84-10.06-52.54-39.26-30.32-49.19
		c36.31-16.24,40.31-35.89,46.93-34.01c37.22,10.56,71.43,9.15,105.68,6.55C309.86,98.14,307.27,97.08,326.34,114.77z M218,132.44
		c0.46-13.32-20.47-15.25-20.91-1.16C196.62,146.54,217.53,145.93,218,132.44z M270.62,126.67c-0.1-9.11-13.91-9.02-13.9,0.19
		C256.73,136.05,270.72,135.67,270.62,126.67z"/>
	<path class="st0" d="M295.62,83.47c-29.8,2.23-58.51,0.07-87.32-6.12c3.38-10.16,26.71-55.49,32.12-65.72
		c4.54-8.59,13.91-8.57,18.18-1.4C274.75,37.34,274.28,44.18,295.62,83.47z M251.77,61.11c10.18,0.07,10.46-15.74,0.1-15.81
		C241.45,45.23,241.65,61.04,251.77,61.11z"/>
</g>
</svg>
